<?xml version="1.0" encoding="iso-8859-1"?>
<!-- Generator: Adobe Illustrator 18.1.1, SVG Export Plug-In . SVG Version: 6.00 Build 0)  -->
<!DOCTYPE svg PUBLIC "-//W3C//DTD SVG 1.1//EN" "http://www.w3.org/Graphics/SVG/1.1/DTD/svg11.dtd">
<svg version="1.1" id="Layer_1" xmlns="http://www.w3.org/2000/svg" xmlns:xlink="http://www.w3.org/1999/xlink" x="0px" y="0px"
	 viewBox="0 0 122.75 110.834" style="enable-background:new 0 0 122.75 110.834;" xml:space="preserve">
<g>
	<path style="fill:#FFFFFF;" d="M14.101,4.101c3.2,0,6,0.5,8.1,1.85c2.25,1.45,3.8,3.75,3.8,8c0,4.75-1.9,8.351-6.5,9.55c4.351,0.8,5.65,5.05,6.701,15.101
		h-8.5c-1.25-9.301-1.95-11.701-5.05-11.701h-4.55v11.701H0V4.101H14.101z M8.101,20.102h3.65c3.85,0,5.85-0.85,5.85-5.201
		c0-1.65-0.3-2.6-0.95-3.2c-0.6-0.55-1.5-0.7-3-0.7h-5.55V20.102z"/>
	<path style="fill:#FFFFFF;" d="M30.149,16.201c2.601-2.8,6.101-3.65,10.201-3.65c7.201,0,10.601,2.6,10.601,9.801v16.251H44.3l-0.05-3.25
		c-1.85,2.7-4.5,3.9-7.4,3.9c-2.4,0-4.3-0.8-5.601-2c-1.5-1.4-2.25-3.3-2.25-5.9c0-3.1,1.1-5.2,3.15-6.601
		c2.2-1.5,5.5-2.05,8.9-2.05h2.7v-0.65c0-2.8-0.95-3.65-3.75-3.65c-2.45,0-4.351,0.65-6,2.25L30.149,16.201z M40.7,27.702
		c-2.75,0-4.35,0.35-4.35,3.3c0,1.6,0.45,2.55,1.8,2.55c2.1,0,5.4-2.3,5.75-5.851H40.7z"/>
	<path style="fill:#FFFFFF;" d="M79.6,0.35v38.252h-7.35l-0.1-3.35c-1.7,2.6-4.4,4-7.451,4c-2.35,0-4.3-0.85-5.75-2.45c-2-2.2-3-5.55-3-10.75
		c0-4.9,0.9-8.601,3.35-10.951c1.65-1.6,3.95-2.6,7.101-2.6c2.1,0,3.9,0.45,5.35,1.8V0.35H79.6z M69.95,30.652
		c1.35-1.7,2.1-3.95,2.1-6.5c0-1.85-0.4-3.15-1.3-4.05c-0.7-0.7-1.75-1.05-2.95-1.05c-3.05,0-3.6,2.15-3.6,6.9
		c0,4.9,0.6,6.601,2.55,6.601C68,32.552,69,31.852,69.95,30.652z"/>
	<path style="fill:#FFFFFF;" d="M89.799,0c2.65,0,4.6,2,4.6,4.701c0,2.7-1.949,4.65-4.6,4.65c-2.601,0-4.601-2-4.601-4.65C85.198,2.05,87.198,0,89.799,0z
		 M93.748,13.101v25.501h-7.85V13.101H93.748z"/>
	<path style="fill:#FFFFFF;" d="M119.25,36.353c-2.101,2-4.751,3-8.602,3c-3.75,0-6.35-0.95-8.3-2.75c-2.601-2.35-3.4-5.5-3.4-10.401
		c0-5.15,0.899-8.3,3.45-10.8c2.1-2.05,4.801-3.101,8.65-3.101c3.7,0,6.4,0.95,8.351,2.75c2.55,2.35,3.351,5.6,3.351,10.5
		C122.75,30.602,121.9,33.802,119.25,36.353z M113.549,19.801c-0.5-0.6-1.3-0.9-2.5-0.9c-1.449,0-2.35,0.45-2.8,1
		c-0.9,1.05-1.251,3.4-1.251,6.15c0,2.9,0.4,5.05,1.15,5.851c0.5,0.55,1.4,0.9,2.601,0.9c1.351,0,2.2-0.45,2.7-1.05
		c0.9-1.05,1.3-3.2,1.3-6.15C114.749,22.852,114.399,20.801,113.549,19.801z"/>
	<path style="fill:#FFFFFF;" d="M37.745,48.617l3.824,21.772l4.78-20.99h7.127l4.737,20.947l3.824-21.729h6.997l-6.605,29.986h-7.953l-4.693-20.599
		l-4.737,20.599h-7.953l-6.388-29.986H37.745z"/>
	<path style="fill:#FFFFFF;" d="M75.597,45.054c2.304,0,3.998,1.738,3.998,4.085S77.9,53.18,75.597,53.18c-2.26,0-3.998-1.738-3.998-4.042
		S73.337,45.054,75.597,45.054z M79.029,56.44v22.163h-6.822V56.44H79.029z"/>
	<path style="fill:#FFFFFF;" d="M99.934,62.263l-8.301,10.473h8.518v5.867H83.332v-5.606l8.258-10.43h-7.822v-5.866h16.166V62.263z"/>
	<path style="fill:#FFFFFF;" d="M108.06,45.054c2.304,0,3.998,1.738,3.998,4.085s-1.694,4.042-3.998,4.042c-2.26,0-3.998-1.738-3.998-4.042
		S105.8,45.054,108.06,45.054z M111.492,56.44v22.163h-6.822V56.44H111.492z"/>
</g>
<g id="bEB0wr_2_">
	<g>
		<path style="fill:#FFFFFF;" d="M44.441,109.676c0.171,0.075,0.341,0.149,0.512,0.224c-0.228,0.259-0.451,0.738-0.686,0.744
			c-2.105,0.059-4.214,0.054-6.32,0.009c-0.273-0.006-0.54-0.348-0.779-0.514c-0.008,0.084-0.216,0.236-0.593,0.266
			c-1.323,0.104-2.646,0.25-3.971,0.259c-1.605,0.011-3.211-0.114-4.817-0.155c-0.984-0.025-1.969-0.005-2.882-0.005
			c-0.053-0.057,0.01,0.011,0.05,0.054c-2.842,0-5.713,0-8.674,0c0-0.832-0.053-1.761,0.015-2.681
			c0.064-0.874-0.35-1.837,0.255-2.554c-0.074-0.389-0.196-0.745-0.201-1.103c-0.022-1.511-0.009-3.023-0.009-4.588
			c0.159,0.01,0.352,0.022,0.727,0.046c-0.312-0.25-0.496-0.398-0.697-0.558c0-2.357,0-4.791,0-7.241
			c-0.025,0.008,0.01-0.016,0.026-0.006c0.071,0.041,0.136,0.092,0.12,0.081c-0.073-0.423-0.203-0.843-0.209-1.265
			c-0.023-1.851-0.01-3.703-0.01-5.666c1.517,0.107,3.032-0.262,4.523,0.2c0.053-0.037,0.178-0.203,0.303-0.203
			c2.813-0.009,5.625-0.006,8.438,0.02c0.198,0.002,0.394,0.192,0.621,0.31c0.023-0.027,0.159-0.319,0.293-0.318
			c2.637,0.011,5.274,0.092,7.91,0.085c5.447-0.013,10.895-0.073,16.342-0.107c1.859-0.011,3.719-0.002,5.62-0.002
			c0,0.259,0,0.508,0,0.756c0.057,0.015,0.114,0.031,0.171,0.046c0.087-0.257,0.174-0.513,0.26-0.769c1.228,0,2.489,0,3.75-0.001
			c0.24,1.183,0.01,1.469-1.195,1.469c-6.021,0.001-12.042,0.001-18.063,0.001c-4.338,0-8.676,0.01-13.015-0.003
			c-3.766-0.011-7.531-0.05-11.297-0.073c-0.991-0.006-1.983-0.001-3.026-0.001c0,1.478,0.032,2.787-0.013,4.093
			c-0.025,0.739-0.235,1.472-0.252,2.21c-0.011,0.485,0.197,0.971,0.261,1.463c0.06,0.462-0.023,0.827-0.743,0.487
			c0.924,0.415,0.828,1.156,0.732,1.838c-0.094,0.663-0.313,1.309-0.494,2.029c0.689,0.594,0.723,0.813,0.22,1.986
			c-0.03,0.07-0.045,0.179-0.012,0.24c0.66,1.198,0.18,2.475,0.246,3.711c0.077,1.425,0.025,2.856,0.074,4.283
			c0.025,0.728,0.386,0.381,0.838,0.307c0.934-0.153,1.909-0.062,2.867-0.064c2.199-0.003,4.398-0.023,6.596,0.004
			c2.473,0.03,4.945,0.145,7.418,0.146c2.306,0.001,4.611-0.108,6.917-0.143c0.499-0.008,0.999,0.092,1.499,0.143
			C44.205,109.335,44.323,109.505,44.441,109.676z"/>
		<path style="fill:#FFFFFF;" d="M86.401,109.868c0.191,0.666,0.074,0.795-0.637,0.718c-0.226-0.024-0.461,0.026-0.775,0.048
			c0.284-0.594,0.191-0.946-0.529-1.004c-0.194-0.016-0.36-0.37-0.446-0.465c1.63,0,3.393,0.009,5.156-0.007
			c0.395-0.004,0.79-0.145,1.184-0.138c2.068,0.033,4.136,0.086,6.203,0.151c0.495,0.016,0.71-0.158,0.685-0.666
			c-0.016-0.324,0.07-0.653,0.058-0.978c-0.022-0.606,0.303-0.687,0.9-0.706c-0.149-0.107-0.324-0.192-0.442-0.327
			c-0.193-0.221-0.496-0.473-0.499-0.715c-0.029-2.316,0-4.633,0.002-6.949c0.001-1.406-0.022-2.812-0.024-4.219
			c-0.004-2.66-0.001-5.32-0.001-8.075c-4.847,0-9.654,0-14.509,0c-0.041-0.302-0.072-0.536-0.106-0.789
			c-0.071-0.018-0.173-0.078-0.212-0.049c-0.136,0.099-0.25,0.228-0.372,0.346c0.145,0.105,0.291,0.209,0.535,0.385
			c-5.97,0-11.848,0-17.724,0c-0.166-1.392-0.138-1.424,1.195-1.424c7.71,0.001,15.419,0.001,23.129,0.001c3.205,0,6.41,0,9.728,0
			c0,1.333-0.001,2.617,0,3.901c0.001,0.808-0.113,1.601-0.034,2.428c0.135,1.411,0.076,2.846,0.012,4.267
			c-0.02,0.442-0.319,0.871-0.402,1.36c0.106-0.137,0.212-0.274,0.327-0.422c0.03,0.035,0.087,0.072,0.084,0.103
			c-0.086,0.846-0.203,1.69-0.253,2.538c-0.014,0.246,0.242,0.503,0.244,0.756c0.022,3.061,0.026,6.122,0.021,9.184
			c-0.001,0.846-0.692,1.54-1.598,1.549c-2.398,0.024-4.797,0.032-7.195-0.01c-0.608-0.011-1.213-0.23-1.884-0.366
			C87.546,110.957,87.13,110.879,86.401,109.868z"/>
		<path style="fill:#FFFFFF;" d="M42.279,96.634c0.873-0.915,2.592-1.208,3.506-0.534c0.36,0.265,0.703,0.767,0.749,1.195
			c0.077,0.71-0.134,1.446-0.142,2.171c-0.005,0.401,0.188,0.8,0.235,1.206c0.043,0.375,0.009,0.758,0.009,1.38
			c-0.511-0.203-0.868-0.345-1.284-0.51c-0.381,0.134-0.921,0.429-1.489,0.501c-1.033,0.13-1.628-0.368-1.826-1.357
			c-0.192-0.953,0.254-1.819,1.192-2.06c0.733-0.188,1.511-0.205,2.508-0.327c-0.243-0.526-0.339-1.214-0.715-1.444
			c-0.701-0.429-1.488-0.185-2.179,0.433C42.645,97.059,42.46,96.844,42.279,96.634z M45.605,99.166
			c-0.691,0.061-1.279,0.049-1.833,0.179c-0.626,0.147-0.751,0.679-0.619,1.237c0.135,0.575,0.563,0.663,1.083,0.54
			C45.168,100.902,45.433,100.191,45.605,99.166z"/>
		<path style="fill:#FFFFFF;" d="M71.514,98.269c-0.171-0.475-0.209-1.21-0.55-1.4c-0.719-0.4-1.552-0.249-2.202,0.352
			c-0.24-0.197-0.457-0.375-0.697-0.573c0.943-1.014,2.029-0.98,3.151-0.73c0.118,0.026,0.186,0.242,0.299,0.346
			c0.06,0.055,0.185,0.037,0.25,0.09c0.168,0.133,0.44,0.274,0.457,0.436c0.104,0.949,0.159,1.903,0.202,2.857
			c0.013,0.274-0.065,0.553-0.104,0.83c-0.038,0.272-0.078,0.543-0.129,0.894c-0.029-0.023,0.106,0.084,0.24,0.19
			c-0.114,0.107-0.245,0.318-0.339,0.303c-0.281-0.046-0.548-0.18-0.892-0.306c-0.475,0.139-1.103,0.435-1.749,0.484
			c-0.888,0.067-1.427-0.475-1.587-1.35c-0.17-0.929,0.196-1.739,1.046-1.983C69.69,98.486,70.518,98.43,71.514,98.269z
			 M71.387,99.166c-0.663,0.077-1.342,0.036-1.904,0.272c-0.282,0.118-0.49,0.75-0.465,1.133c0.013,0.209,0.566,0.504,0.903,0.548
			C70.755,101.227,71.26,100.434,71.387,99.166z"/>
		<path style="fill:#FFFFFF;" d="M27.698,95.97c0.447,0,0.716,0,1.061,0c-0.056,0.361-0.104,0.673-0.134,0.867c0.512-0.34,0.993-0.84,1.57-1.005
			c1.039-0.298,2.104,0.573,2.136,1.649c0.037,1.202,0.021,2.406,0.001,3.609c-0.003,0.175-0.159,0.347-0.265,0.563
			c0.009,0.007,0.103,0.083,0.257,0.206c-0.374,0-0.688,0-1.117,0c0.052-0.678,0.156-1.341,0.14-2.001
			c-0.021-0.879-0.092-1.764-0.244-2.629c-0.034-0.191-0.481-0.364-0.766-0.442c-0.306-0.084-0.645-0.063-0.969-0.053
			c-0.09,0.003-0.262,0.172-0.25,0.195c0.313,0.659-0.227,1.194-0.248,1.798c-0.029,0.84-0.031,1.681-0.048,2.522
			c-0.004,0.188-0.023,0.375-0.034,0.55c-1.052,0.193-1.09,0.166-1.092-0.816C27.696,99.317,27.698,97.65,27.698,95.97z"/>
		<path style="fill:#FFFFFF;" d="M48.112,95.993c0.314-0.021,0.605-0.04,0.935-0.062c0.031,0.288,0.058,0.526,0.062,0.564
			c0.641-0.231,1.309-0.553,2.012-0.686c0.317-0.06,1.017-0.148,0.83,0.71c-0.046,0.213,0.39,0.531,0.71,0.932
			c0,1.259,0,2.716,0,4.227c-0.307,0.07-0.634,0.145-1.167,0.267c0.115-1.441,0.27-2.767,0.293-4.095
			c0.006-0.337-0.341-0.834-0.654-0.978c-0.289-0.133-0.847-0.009-1.119,0.21c-0.885,0.712-0.835,1.782-0.876,2.795
			c-0.006,0.158,0.015,0.318,0.029,0.58c-0.217-0.154-0.353-0.252-0.489-0.349c0.523,0.503,0.68,1.073,0.276,1.772
			c-0.193,0-0.492,0-0.841,0C48.112,99.948,48.112,98.029,48.112,95.993z"/>
		<path style="fill:#FFFFFF;" d="M54.316,97.091c-0.301-0.022-0.57-0.041-0.832-0.06c-0.128-0.825-0.088-0.873,0.849-0.986
			c0.05-0.52,0.101-1.054,0.159-1.659c0.37,0.034,0.679,0.063,1.034,0.096c0,0.529,0,1.019,0,1.607c0.607,0,1.168,0,1.721,0
			c0.13,0.565,0.196,0.99-0.511,0.967c-0.408-0.013-0.816-0.002-1.194-0.002c-0.19,1.065,0.379,2.169-0.426,2.993
			c0.525,0.784,1.191,1.343,2.229,1.084c-0.161,0.33-0.278,0.568-0.438,0.897c-0.08,0.006-0.266,0.023-0.453,0.035
			c-1.673,0.108-2.018-0.54-2.033-2.215c-0.007-0.785,0.009-1.571,0.002-2.357C54.422,97.363,54.357,97.237,54.316,97.091z"/>
		<path style="fill:#FFFFFF;" d="M39.596,94.327c-0.06,0.65-0.116,1.268-0.174,1.898c0.577-0.05,1.23-0.106,1.961-0.169
			c0.024,0.342,0.041,0.599,0.066,0.954c-0.618,0.03-1.179,0.058-1.682,0.082c0,1.386,0,2.725,0,4.124
			c0.644-0.066,1.099-0.113,1.559-0.161c0.349,0.776,0.041,0.999-0.687,1.018c-1.775,0.049-2.49-0.906-1.924-2.561
			c0.074-0.216-0.177-0.524-0.186-0.793c-0.018-0.524,0.029-1.05,0.05-1.605c-0.441-0.038-0.735-0.064-1.063-0.092
			c0.033-0.311,0.063-0.593,0.094-0.881c0.266-0.027,0.536-0.054,0.793-0.081C38.775,95.459,37.922,94.104,39.596,94.327z"/>
		<path style="fill:#FFFFFF;" d="M89.061,97.125c-0.358-0.143-0.63-0.269-0.913-0.362c-0.895-0.293-1.485,0.017-1.678,0.935
			c-0.106,0.506-0.215,1.055-0.124,1.547c0.113,0.61,0.272,1.387,0.7,1.721c0.642,0.5,1.368,0.027,1.948-0.462
			c0.018-0.015,0.04-0.026,0.073-0.047c0.203,0.171,0.408,0.344,0.749,0.632c-0.638,0.364-1.106,0.763-1.643,0.911
			c-1.479,0.408-2.618-0.345-2.887-1.873c-0.108-0.614-0.089-1.254-0.076-1.882c0.003-0.134,0.243-0.253,0.347-0.398
			c0.08-0.111,0.201-0.324,0.162-0.369c-0.593-0.691,0.116-0.983,0.453-1.263c0.874-0.727,2.428-0.59,3.375,0.249
			C89.397,96.67,89.241,96.88,89.061,97.125z"/>
		<path style="fill:#FFFFFF;" d="M35.497,95.952c-0.283,0.399-0.384,0.67-0.579,0.792c-0.604,0.377-0.658,0.897-0.042,1.251
			c0.425,0.244,0.91,0.381,1.358,0.588c0.984,0.455,1.366,1.087,1.233,2.001c-0.116,0.793-0.775,1.342-1.763,1.471
			c-0.852,0.111-1.858-0.167-2.466-0.715c0.169-0.222,0.341-0.448,0.577-0.758c0.14,0.297,0.236,0.501,0.38,0.806
			c0.687-0.218,1.471-0.317,2.055-0.712c0.337-0.227,0.073-0.831-0.409-1.05c-0.55-0.25-1.14-0.424-1.663-0.719
			c-1.086-0.614-1.19-2.146-0.175-2.728C34.33,95.992,34.798,96.048,35.497,95.952z"/>
		<path style="fill:#FFFFFF;" d="M63.441,95.78c0.035,0.327,0.065,0.607,0.099,0.915c-1.259-0.287-2.188,0.56-2.084,1.844
			c0.071,0.881,0.197,1.757,0.316,2.789c0.843-0.238,1.654-0.467,2.622-0.74c0.035,0.038,0.232,0.248,0.455,0.487
			c-0.762,0.933-1.735,1.15-2.775,0.937c-0.995-0.204-1.533-0.939-1.643-1.938c-0.138-1.253-0.248-2.484,0.664-3.585
			C61.728,95.726,62.505,95.778,63.441,95.78z"/>
		<path style="fill:#FFFFFF;" d="M66.014,92.818c0.35,0,0.647,0,0.939,0c0.378,1.861,0.142,5.108-0.33,5.325c0.14,0.159,0.451,0.406,0.413,0.483
			c-0.386,0.786,0.12,1.533,0.064,2.309c-0.055,0.771-0.215,1.162-1.087,0.912C66.014,98.866,66.014,95.866,66.014,92.818z"/>
		<path style="fill:#FFFFFF;" d="M25.349,98.618c-0.108-0.336-0.279-0.632-0.287-0.932c-0.031-1.237-0.013-2.475-0.013-3.776
			c0.367-0.039,0.723-0.077,1.097-0.116c0,2.628,0,5.2,0,7.896c-0.281,0.072-0.632,0.162-1.112,0.285
			C25.2,100.781,24.734,99.641,25.349,98.618z"/>
		<path style="fill:#FFFFFF;" d="M54.35,109.337c0.511-0.422,1.038-0.317,1.532,0.374c0.152-0.243,0.285-0.454,0.437-0.697
			c1.021,0,2.067-0.009,3.112,0.003c0.72,0.009,1.183,0.553,1.046,1.273c-0.115,0.6-0.532,0.453-0.871,0.227
			c-0.433-0.29-0.723-0.597-1.21,0.059c-0.195,0.262-1.018,0.2-1.5,0.076c-0.791-0.205-1.534-0.205-2.304,0.02
			c-0.17,0.05-0.373-0.013-0.566-0.112c0.202-0.036,0.404-0.072,0.773-0.139c-0.174-0.41-0.323-0.758-0.47-1.105
			C54.33,109.316,54.35,109.337,54.35,109.337z"/>
		<path style="fill:#FFFFFF;" d="M78.278,100.66c0.522,0.301,0.964,0.592,1.609,0.569c0.612-0.022,0.91-0.271,0.962-0.747
			c0.052-0.471-0.012-1.008-0.72-1.062c-0.545-0.042-1.131-0.106-0.914-0.917c0.034-0.126,0.156-0.298,0.267-0.323
			c0.844-0.196,2.417,0.982,2.524,1.858c0.132,1.083-0.502,1.87-1.798,1.984c-0.781,0.068-1.595-0.247-2.591-0.426
			C77.931,101.152,78.093,100.922,78.278,100.66z"/>
		<path style="fill:#FFFFFF;" d="M62.389,110.678c-0.126-0.256-0.231-0.467-0.335-0.678c-0.035,0.005-0.071,0.01-0.106,0.014
			c0.037,0.204,0.073,0.407,0.126,0.702c-0.476-0.145-0.938-0.285-1.358-0.413c0-0.431,0-0.812,0-1.289
			c1.46,0,3.062-0.047,4.657,0.043c0.29,0.017,0.548,0.598,0.822,0.919c-0.07,0.049-0.139,0.099-0.209,0.148
			c-0.097-0.185-0.195-0.37-0.348-0.661c-0.291,0.233-0.565,0.452-0.881,0.704C64.068,110.316,63.259,110.491,62.389,110.678z"/>
		<path style="fill:#FFFFFF;" d="M77.505,96.106c-0.324,0.493-0.471,0.715-0.599,0.911c-0.711-0.062-1.286-0.819-1.978-0.229
			c-0.195,0.166-0.397,0.496-0.363,0.715c0.04,0.258,0.287,0.559,0.527,0.692c0.317,0.177,0.715,0.209,1.092,0.307
			c-0.142,0.365-0.261,0.671-0.385,0.987c-0.472-0.165-0.967-0.288-1.415-0.506c-0.81-0.395-1.149-1.093-0.966-1.901
			c0.187-0.828,0.823-1.159,1.573-1.177C75.754,95.888,76.522,96.02,77.505,96.106z"/>
		<path style="fill:#FFFFFF;" d="M82.957,95.973c0.425,0,0.745,0,1.243,0c-0.097,1.081-0.22,2.112-0.271,3.146c-0.028,0.578,0.012,1.172,0.114,1.742
			c0.149,0.83-0.318,0.979-0.99,1.016c0-0.372,0-0.729,0-1.173c0.154,0.133,0.27,0.234,0.386,0.334
			c0.051-0.042,0.102-0.084,0.153-0.125c-0.162-0.187-0.324-0.375-0.623-0.72c0.05-0.394,0.131-1.026,0.228-1.785
			C82.532,97.81,83.277,96.845,82.957,95.973z"/>
		<path style="fill:#FFFFFF;" d="M81.851,96.379c-0.168,0.222-0.329,0.435-0.424,0.561c-0.671-0.08-1.252-0.216-1.828-0.199
			c-0.509,0.015-0.733,0.332-0.59,0.904c0.069,0.277-0.08,0.609-0.131,0.916c-0.264-0.086-0.683-0.097-0.768-0.272
			c-0.545-1.111-0.118-2.107,1.096-2.401C80.095,95.673,81.039,95.648,81.851,96.379z"/>
		<path style="fill:#FFFFFF;" d="M76.721,98.725c0.708,0.902,0.953,1.666,0.572,2.467c-0.295,0.619-1.808,1.071-2.599,0.847
			c-0.133-0.038-0.212-0.266-0.302-0.388c-0.22,0-0.519,0.08-0.711-0.028c-0.126-0.071-0.099-0.415-0.003-0.68
			c0.069,0.129,0.139,0.257,0.201,0.374c0.411-0.364,0.559-0.363,2.212,0.07c0.19-0.562,0.607-1.081,0.037-1.712
			C76.066,99.607,76.467,99.121,76.721,98.725z"/>
		<path style="fill:#FFFFFF;" d="M78.352,109.61c0.186-1.092,1.018-0.264,1.473-0.459c-0.254,0.126-0.509,0.251-0.952,0.47
			c0.418,0.103,0.656,0.162,0.816,0.202c0.2-0.303,0.33-0.724,0.538-0.767c0.355-0.074,0.76,0.089,1.152,0.154
			c-0.333,0.255-0.528,0.416-0.736,0.559c-0.107,0.073-0.231,0.133-0.357,0.166c-0.423,0.111-1.02-0.165-1.173,0.538
			c-0.003,0.013-0.047,0.022-0.073,0.024c-0.599,0.057-1.204,0.188-1.794,0.138c-0.287-0.024-0.545-0.387-0.989-0.487
			c-0.019-0.18-0.038-0.361-0.05-0.466c-0.299-0.167-0.559-0.312-0.819-0.457c0.028-0.067,0.056-0.133,0.085-0.2
			c0.428,0.026,0.856,0.052,1.322,0.08c-0.148,0.245-0.307,0.506-0.465,0.768C77.005,109.251,77.738,109.578,78.352,109.61z"/>
		<path style="fill:#FFFFFF;" d="M44.441,109.676c-0.118-0.171-0.235-0.342-0.353-0.512c1.043-0.061,2.086-0.122,3.129-0.182
			c0.01,0.099,0.019,0.198,0.029,0.297c-0.353,0.057-0.707,0.112-1.059,0.172c-0.115,0.02-0.228,0.054-0.342,0.082
			c0.11,0.092,0.211,0.244,0.333,0.264c0.343,0.057,0.694,0.059,1.074,0.085c0.063-0.183,0.161-0.469,0.285-0.828
			c0.714,1.319,0.268,1.656-0.989,1.617c-0.539-0.017-1.079-0.003-1.649-0.193c0.161-0.084,0.323-0.167,0.527-0.273
			c-0.233-0.249-0.435-0.487-0.667-0.691C44.726,109.485,44.551,109.618,44.441,109.676z"/>
		<path style="fill:#FFFFFF;" d="M51.56,109.517c0.402-0.615,1.014-0.4,1.562-0.37c0.412,0.022,0.819,0.125,1.228,0.191
			c-0.001-0.001-0.02-0.022-0.021-0.023c-0.297,0.299-0.607,0.586-0.883,0.904c-0.091,0.105-0.093,0.287-0.189,0.614
			c-0.276-0.449-0.491-0.799-0.67-1.09c-0.174,0.328-0.333,0.627-0.492,0.926c-0.086-0.107-0.172-0.214-0.253-0.315
			c-0.284,0.347-1.404,0.46-2.111,0.138l-0.018,0.026c0.415-0.296,0.767-0.771,1.389-0.449c0.112,0.058,0.302,0.098,0.389,0.042
			c0.146-0.094,0.238-0.272,0.353-0.414c-0.103-0.065-0.206-0.13-0.309-0.195C51.535,109.502,51.56,109.517,51.56,109.517z"/>
		<path style="fill:#FFFFFF;" d="M49.731,110.494c-0.239,0.064-0.477,0.128-0.76,0.204c0.073-0.876,0.122-1.659,1.175-1.58
			c0.307,0.023,0.594,0.247,0.9,0.348c0.16,0.052,0.342,0.037,0.514,0.052c0,0-0.025-0.015-0.025-0.015
			c-0.475,0.952-0.934-0.133-1.453,0.033c-0.109,0.291-0.239,0.637-0.37,0.984C49.713,110.519,49.731,110.494,49.731,110.494z"/>
		<path style="fill:#FFFFFF;" d="M83.079,94.328c0.148-0.032,0.295-0.065,0.454-0.099c-0.214-0.124-0.415-0.241-0.611-0.355
			c0.256-0.434,0.531-0.887,1.005-0.391c0.182,0.191,0.114,0.62,0.16,0.941c-0.327,0.039-0.654,0.078-0.981,0.117
			C83.098,94.469,83.089,94.398,83.079,94.328z"/>
		<path style="fill:#FFFFFF;" d="M49.713,110.519c0.13-0.346,0.26-0.693,0.37-0.984c0.519-0.166,0.978,0.919,1.453-0.033
			c0.103,0.065,0.206,0.13,0.309,0.195c-0.115,0.143-0.207,0.32-0.353,0.414c-0.087,0.056-0.277,0.016-0.389-0.042
			C50.48,109.748,50.128,110.224,49.713,110.519z"/>
	</g>
</g>
</svg>
